<svg width="100%" height="100%"
     viewBox="0 0 500 500"
     version="1.1" xmlns="http://www.w3.org/2000/svg">
    <g transform="matrix(1,0,0,1,-2192,0)">
        <rect id="moon" x="2192" y="0" width="500" height="500" style="fill:none;"/>

        <g id="moon.svg" transform="matrix(24.7973,0,0,24.7973,2442,250)">
            <g transform="matrix(1,0,0,1,-12.0191,-11.9809)">
                <clipPath id="_clip1">
                    <rect x="2.038" y="2" width="19.962" height="19.962"/>
                </clipPath>
                <g clip-path="url(#_clip1)">
                    <path d="M21,12.79C20.574,17.396 16.664,20.962 12.038,20.962C7.101,20.962 3.038,16.899 3.038,11.962C3.038,7.336 6.604,3.426 11.21,3C10.32,4.204 9.839,5.663 9.839,7.161C9.839,11.001 12.999,14.161 16.839,14.161C18.337,14.161 19.796,13.68 21,12.79Z"
                          style="fill:none;fill-rule:nonzero;stroke:black;stroke-width:2px;"/>
                </g>
            </g>
        </g>
    </g>
</svg>
